<svg xmlns="http://www.w3.org/2000/svg" viewBox="0 0 14.609 16"><defs><style>.a{fill:#fff;}</style></defs><path class="a" d="M8.522,9.043a4.522,4.522,0,1,1,4.522-4.522A4.513,4.513,0,0,1,8.522,9.043Zm0-7.652a3.13,3.13,0,1,0,3.13,3.13A3.117,3.117,0,0,0,8.522,1.391Z" transform="translate(-1.217)"/><path class="a" d="M13.913,20.261a.657.657,0,0,1-.7-.7V17.478a2.05,2.05,0,0,0-2.087-2.087H3.478a2.05,2.05,0,0,0-2.087,2.087v2.087a.657.657,0,0,1-.7.7.657.657,0,0,1-.7-.7V17.478A3.444,3.444,0,0,1,3.478,14H11.13a3.444,3.444,0,0,1,3.478,3.478v2.087A.657.657,0,0,1,13.913,20.261Z" transform="translate(0 -4.261)"/></svg>