<svg xmlns="http://www.w3.org/2000/svg" viewBox="0 0 40 35"><defs><style>.a{fill:#fff;}</style></defs><g transform="translate(0 -1.5)"><path class="a" d="M35,5.5H5a4.911,4.911,0,0,0-5,5V28.833a4.911,4.911,0,0,0,5,5H35a4.911,4.911,0,0,0,5-5V10.5A4.911,4.911,0,0,0,35,5.5Zm1.667,23.333A1.575,1.575,0,0,1,35,30.5H5a1.575,1.575,0,0,1-1.667-1.667V10.5A1.575,1.575,0,0,1,5,8.833H35A1.575,1.575,0,0,1,36.667,10.5Z" transform="translate(0 2.667)"/><rect class="a" width="11.667" height="3.333" transform="translate(20 18.167)"/><rect class="a" width="11.667" height="3.333" transform="translate(20 24.833)"/><path class="a" d="M10.667,14.5H7.333A3.343,3.343,0,0,0,4,17.833v3.333H14V17.833A3.343,3.343,0,0,0,10.667,14.5Z" transform="translate(2.667 8.667)"/><circle class="a" cx="3.333" cy="3.333" r="3.333" transform="translate(8.333 14.833)"/><path class="a" d="M9,6.5h3.333A1.575,1.575,0,0,1,14,4.833,1.575,1.575,0,0,1,15.667,6.5H19a4.911,4.911,0,0,0-5-5A4.911,4.911,0,0,0,9,6.5Z" transform="translate(6)"/></g></svg>